<?xml version="1.0" encoding="UTF-8"?><svg id="Layer_2" xmlns="http://www.w3.org/2000/svg" viewBox="0 0 1060.22 160.32"><defs><style>.cls-1{fill:#000;}.cls-1,.cls-2,.cls-3,.cls-4{stroke-width:0px;}.cls-2{fill:#dbf32e;}.cls-3{fill:#0a1026;}.cls-4{fill:#2abfb1;}</style></defs><g id="Logo_Mark"><g id="Logo"><path class="cls-4" d="M194,125.82c0,19.06-15.45,34.5-34.5,34.5s-34.5-15.45-34.5-34.5v-34.08l-3.77,3.91h0c-6.32,7.21-15.6,11.77-25.94,11.77s-19.97-4.72-26.29-12.17L24.02,44.54c-4.61-4.72-7.46-11.19-7.46-18.31C16.56,11.74,28.3,0,42.79,0c5.98,0,11.48,2,15.89,5.37l37.15,25.89,40.29-26.48h0c4.27-3.01,9.48-4.78,15.09-4.78,13.53,0,24.67,10.26,26.07,23.42h0s15.97,95.27,15.97,95.27v.03c.49,2.29.74,4.67.74,7.1Z"/><circle class="cls-2" cx="19.92" cy="73.06" r="11.5"/><circle class="cls-3" cx="34.5" cy="125.82" r="34.5"/></g><path class="cls-1" d="M246.01,81.76h.01c3.07,0,5.98,1.39,7.92,3.77l16.8,20.69,16.71-20.68c1.94-2.4,4.85-3.79,7.93-3.79h0c5.63,0,10.2,4.57,10.2,10.2v51.85h-16.75v-35.72l-15.49,18.49c-.63.76-1.57,1.19-2.55,1.19h0c-.98,0-1.91-.43-2.55-1.18l-15.67-18.58v35.81h-16.75v-51.85c0-5.63,4.57-10.2,10.2-10.2Z"/><path class="cls-1" d="M314.7,112.78c0-19.86,13.38-32.62,34.21-32.62s34.22,12.76,34.22,32.62-13.38,32.62-34.22,32.62-34.21-12.76-34.21-32.62ZM348.92,130.6c10.55,0,17.37-7,17.37-17.82s-6.83-17.82-17.37-17.82-17.37,7-17.37,17.82,6.83,17.82,17.37,17.82Z"/><path class="cls-1" d="M386.33,81.76h53.36v14.36s-18.26,0-18.26,0v47.69h-16.84v-47.69h-18.26v-14.36Z"/><path class="cls-1" d="M442.88,112.78c0-19.86,13.38-32.62,34.21-32.62s34.22,12.76,34.22,32.62-13.38,32.62-34.22,32.62-34.21-12.76-34.21-32.62ZM477.09,130.6c10.55,0,17.37-7,17.37-17.82s-6.83-17.82-17.37-17.82-17.37,7-17.37,17.82,6.83,17.82,17.37,17.82Z"/><path class="cls-1" d="M520.44,81.76h30.76c13.74,0,22.6,8.69,22.6,21.27,0,9.13-4.52,15.87-13.12,19.06l16.93,21.72h-19.68l-14.45-20.03h-6.2v20.03h-16.84v-62.05ZM548.63,110.83c5.58,0,8.6-2.66,8.6-7.53s-3.01-7.53-8.6-7.53h-11.52v15.07h11.52Z"/><path class="cls-1" d="M580.8,136.54l8.69-12.06c5.5,4.17,11.35,6.12,18.35,6.12,6.38,0,10.28-2.13,10.28-5.58s-3.28-5.23-10.9-5.94c-17.02-1.6-24.64-7.45-24.64-18.88,0-12.06,10.46-20.03,26.24-20.03,8.86,0,17.46,2.48,23.67,6.83l-7.71,11.79c-4.43-3.01-9.57-4.61-15.07-4.61-6.74,0-10.81,2.04-10.81,5.32s2.84,4.88,10.73,5.67c16.31,1.68,25,8.6,25,20.03,0,12.06-10.81,20.21-26.68,20.21-10.37,0-20.48-3.28-27.12-8.86Z"/><path class="cls-1" d="M684.75,81.76h.01c3.07,0,5.98,1.39,7.92,3.77l16.8,20.69,16.71-20.68c1.94-2.4,4.85-3.79,7.93-3.79h0c5.63,0,10.2,4.57,10.2,10.2v51.85h-16.75v-35.72l-15.49,18.49c-.63.76-1.57,1.19-2.55,1.19h0c-.98,0-1.91-.43-2.55-1.18l-15.67-18.58v35.81h-16.75v-51.85c0-5.63,4.57-10.2,10.2-10.2Z"/><path class="cls-1" d="M785.96,81.76h0c5.4,0,10.29,3.18,12.49,8.11l24.04,53.94h-18.17l-4.08-10.28h-28.81l-4.17,10.28h-17.99l24.21-53.97c2.2-4.91,7.09-8.08,12.48-8.08ZM794.48,119.34l-8.6-21.81-8.78,21.81h17.37Z"/><path class="cls-1" d="M827.45,81.76h30.76c13.74,0,22.6,8.69,22.6,21.27,0,9.13-4.52,15.87-13.12,19.06l16.93,21.72h-19.68l-14.45-20.03h-6.2v20.03h-16.84v-62.05ZM855.64,110.83c5.58,0,8.6-2.66,8.6-7.53s-3.01-7.53-8.6-7.53h-11.52v15.07h11.52Z"/><path class="cls-1" d="M908.29,121.29v22.51h-16.58v-62.05h16.58v22.69l18.08-22.69h20.39l-25.09,30.67,27.3,31.38h-21.63l-19.06-22.51Z"/><path class="cls-1" d="M953.85,81.76h48.13v13.65h-31.91v10.37h30.14v13.12h-30.14v11.08h33.15v13.83h-49.37v-62.05Z"/><path class="cls-1" d="M1006.86,81.76h53.36s0,14.36,0,14.36h-18.26s0,47.69,0,47.69h-16.84v-47.69h-18.26v-14.36Z"/></g></svg>