<?xml version="1.0" encoding="UTF-8"?><svg id="Layer_2" xmlns="http://www.w3.org/2000/svg" viewBox="0 0 326.7 160.76"><defs><style>.cls-1{fill:#000;}.cls-1,.cls-2,.cls-3,.cls-4{stroke-width:0px;}.cls-2{fill:#dbf32e;}.cls-3{fill:#0a1026;}.cls-4{fill:#2abfb1;}</style></defs><g id="Logo_Mark"><g id="Logo"><path class="cls-4" d="M227.71,83.48c0,12.64-10.25,22.89-22.89,22.89s-22.89-10.25-22.89-22.89v-22.61l-2.5,2.59h0c-4.19,4.78-10.35,7.81-17.21,7.81s-13.25-3.13-17.44-8.07l-29.82-33.65c-3.06-3.13-4.95-7.42-4.95-12.15,0-9.61,7.79-17.4,17.4-17.4,3.96,0,7.62,1.33,10.54,3.56l24.65,17.18,26.73-17.57h0c2.83-2,6.29-3.17,10.01-3.17,8.98,0,16.37,6.8,17.3,15.54h0s10.59,63.2,10.59,63.2v.02c.32,1.52.49,3.1.49,4.71Z"/><circle class="cls-2" cx="112.21" cy="48.47" r="7.63"/><circle class="cls-3" cx="121.89" cy="83.48" r="22.89"/></g><path class="cls-1" d="M4.04,135.54h0c1.22,0,2.37.55,3.14,1.49l6.66,8.2,6.62-8.19c.77-.95,1.92-1.5,3.14-1.5h0c2.23,0,4.04,1.81,4.04,4.04v20.55h-6.64v-14.16l-6.14,7.33c-.25.3-.62.47-1.01.47h0c-.39,0-.76-.17-1.01-.47l-6.21-7.36v14.19H0v-20.55c0-2.23,1.81-4.04,4.04-4.04Z"/><path class="cls-1" d="M31.26,147.84c0-7.87,5.3-12.93,13.56-12.93s13.56,5.06,13.56,12.93-5.3,12.93-13.56,12.93-13.56-5.06-13.56-12.93ZM44.82,154.9c4.18,0,6.89-2.77,6.89-7.06s-2.7-7.06-6.89-7.06-6.88,2.78-6.88,7.06,2.7,7.06,6.88,7.06Z"/><path class="cls-1" d="M59.65,135.54h21.15v5.69h-7.24v18.9h-6.67v-18.9h-7.24s0-5.69,0-5.69Z"/><path class="cls-1" d="M82.06,147.84c0-7.87,5.3-12.93,13.56-12.93s13.56,5.06,13.56,12.93-5.3,12.93-13.56,12.93-13.56-5.06-13.56-12.93ZM95.62,154.9c4.18,0,6.89-2.77,6.89-7.06s-2.7-7.06-6.89-7.06-6.88,2.78-6.88,7.06,2.7,7.06,6.88,7.06Z"/><path class="cls-1" d="M112.79,135.54h12.19c5.44,0,8.96,3.44,8.96,8.43,0,3.62-1.79,6.29-5.2,7.55l6.71,8.61h-7.8l-5.73-7.94h-2.46v7.94h-6.67v-24.59ZM123.96,147.06c2.21,0,3.41-1.05,3.41-2.99s-1.19-2.99-3.41-2.99h-4.57v5.97h4.57Z"/><path class="cls-1" d="M136.71,157.25l3.44-4.78c2.18,1.65,4.5,2.42,7.27,2.42,2.53,0,4.07-.84,4.07-2.21s-1.3-2.07-4.32-2.35c-6.74-.63-9.77-2.95-9.77-7.48,0-4.78,4.15-7.94,10.4-7.94,3.51,0,6.92.98,9.38,2.7l-3.06,4.67c-1.76-1.19-3.79-1.83-5.97-1.83-2.67,0-4.29.81-4.29,2.11s1.12,1.93,4.25,2.25c6.46.67,9.91,3.41,9.91,7.94,0,4.78-4.29,8.01-10.57,8.01-4.11,0-8.11-1.3-10.75-3.51Z"/><path class="cls-1" d="M177.91,135.54h0c1.22,0,2.37.55,3.14,1.49l6.66,8.2,6.62-8.19c.77-.95,1.92-1.5,3.14-1.5h0c2.23,0,4.04,1.81,4.04,4.04v20.55h-6.64v-14.16l-6.14,7.33c-.25.3-.62.47-1.01.47h0c-.39,0-.76-.17-1.01-.47l-6.21-7.36v14.19h-6.64v-20.55c0-2.23,1.81-4.04,4.04-4.04Z"/><path class="cls-1" d="M218.02,135.54h0c2.14,0,4.08,1.26,4.95,3.21l9.53,21.38h-7.2l-1.62-4.07h-11.42l-1.65,4.07h-7.13l9.59-21.39c.87-1.95,2.81-3.2,4.94-3.2ZM221.39,150.44l-3.41-8.64-3.48,8.64h6.88Z"/><path class="cls-1" d="M234.46,135.54h12.19c5.44,0,8.96,3.44,8.96,8.43,0,3.62-1.79,6.29-5.2,7.55l6.71,8.61h-7.8l-5.73-7.94h-2.46v7.94h-6.67v-24.59ZM245.63,147.06c2.21,0,3.41-1.05,3.41-2.99s-1.19-2.99-3.41-2.99h-4.57v5.97h4.57Z"/><path class="cls-1" d="M266.49,151.21v8.92h-6.57v-24.59h6.57v8.99l7.17-8.99h8.08l-9.94,12.15,10.82,12.44h-8.57l-7.55-8.92Z"/><path class="cls-1" d="M284.55,135.54h19.07v5.41h-12.65v4.11h11.94v5.2h-11.94v4.39h13.14v5.48h-19.57v-24.59Z"/><path class="cls-1" d="M305.56,135.54h21.15s0,5.69,0,5.69h-7.24v18.9h-6.67v-18.9h-7.24v-5.69Z"/></g></svg>